<?xml version="1.0" encoding="utf-8"?>
<!DOCTYPE svg PUBLIC "-//W3C//DTD SVG 1.1//EN" "http://www.w3.org/Graphics/SVG/1.1/DTD/svg11-tiny.dtd">
<svg version="1.1" xmlns="http://www.w3.org/2000/svg" xmlns:xlink="http://www.w3.org/1999/xlink" x="0px" y="0px"
  width="100%" height="100%" viewBox="0 0 115.568 39.333" preserveAspectRatio="xMidYMid meet"
  xml:space="preserve" baseProfile="tiny">
  <def>
  <style><![CDATA[
      path {
          fill: #42B5E5;
      }
  ]]></style>
  </def>
  <path id="char1" d="M6.258,28.81c0,1.729-1.402,3.129-3.131,3.129l0,0C1.398,31.939,0,30.538,0,28.81V17.189
  	c0-1.727,1.398-3.129,3.127-3.129l0,0c1.729,0,3.131,1.402,3.131,3.129V28.81z"/>
  <path id="char2" d="M17.581,24.492c0,1.729-1.402,3.13-3.131,3.13l0,0c-1.729,0-3.128-1.4-3.128-3.13V7.507
  	c0-1.727,1.399-3.129,3.128-3.129l0,0c1.729,0,3.131,1.402,3.131,3.129V24.492z"/>
  <path id="char3" d="M28.904,36.204c0,1.729-1.399,3.129-3.128,3.129l0,0c-1.729,0-3.131-1.399-3.131-3.129V3.129
  	C22.646,1.4,24.048,0,25.776,0l0,0c1.729,0,3.128,1.4,3.128,3.129V36.204z"/>
  <g>
  	<path d="M45.943,35.038h-3.181v-2.148h-0.056c-0.298,0.67-0.814,1.261-1.549,1.771
  		c-0.735,0.512-1.604,0.769-2.609,0.769c-0.875,0-1.623-0.153-2.247-0.46c-0.623-0.307-1.135-0.711-1.535-1.215
  		c-0.4-0.502-0.693-1.078-0.879-1.729c-0.186-0.651-0.279-1.321-0.279-2.009v-8.372h3.349v7.423c0,0.391,0.028,0.8,0.083,1.229
  		c0.056,0.428,0.177,0.813,0.363,1.158c0.186,0.344,0.442,0.627,0.768,0.851c0.325,0.223,0.758,0.335,1.297,0.335
  		c0.521,0,0.981-0.107,1.381-0.321s0.726-0.487,0.977-0.823c0.251-0.334,0.441-0.721,0.572-1.158
  		c0.13-0.437,0.195-0.879,0.195-1.325v-7.367h3.349L45.943,35.038L45.943,35.038z"/>
  	<path d="M48.901,32.081l7.228-7.759h-6.893v-2.679H60.12v2.958l-7.256,7.702h7.59v2.734H48.901V32.081z"/>
  	<path d="M62.995,17.094c0-0.539,0.199-1.009,0.6-1.409s0.906-0.6,1.521-0.6s1.13,0.191,1.55,0.572
  		c0.418,0.381,0.627,0.861,0.627,1.438c0,0.577-0.209,1.056-0.627,1.438c-0.42,0.381-0.936,0.572-1.55,0.572s-1.12-0.2-1.521-0.6
  		C63.193,18.104,62.995,17.634,62.995,17.094z M63.467,21.643h3.349v13.395h-3.348L63.467,21.643L63.467,21.643z"/>
  	<path d="M70.947,13.94h3.349v13.34h0.084l5.08-5.637h4.297l-5.805,6.056l6.168,7.339h-4.438l-5.304-6.865h-0.084
  		v6.865h-3.348L70.947,13.94L70.947,13.94z"/>
  	<path d="M86.209,15.28h7.006c1.283,0,2.576,0.167,3.879,0.502c1.302,0.335,2.474,0.889,3.517,1.661
  		c1.041,0.772,1.888,1.786,2.539,3.042c0.649,1.256,0.978,2.814,0.978,4.674c0,1.73-0.326,3.219-0.978,4.465
  		c-0.651,1.248-1.498,2.271-2.539,3.069c-1.043,0.8-2.215,1.392-3.517,1.772c-1.303,0.382-2.596,0.572-3.879,0.572h-7.006V15.28z
  		 M92.659,31.968c0.909,0,1.821-0.107,2.733-0.321c0.911-0.214,1.733-0.577,2.47-1.088c0.735-0.512,1.335-1.204,1.801-2.079
  		c0.465-0.874,0.696-1.981,0.696-3.321c0-1.414-0.231-2.566-0.696-3.46c-0.466-0.893-1.064-1.59-1.801-2.093
  		s-1.559-0.846-2.47-1.033c-0.912-0.186-1.824-0.279-2.733-0.279h-2.932v13.674H92.659z"/>
  	<path d="M115.568,28.647c0,0.727-0.079,1.489-0.235,2.289c-0.158,0.8-0.451,1.544-0.879,2.232
  		c-0.43,0.688-1.033,1.256-1.814,1.701c-0.781,0.447-1.786,0.67-3.014,0.67c-1.602,0-2.879-0.399-3.838-1.199
  		c-0.959-0.801-1.613-1.852-1.968-3.153l3.236-0.921c0.168,0.65,0.475,1.167,0.922,1.549c0.446,0.381,0.978,0.572,1.59,0.572
  		c0.503,0,0.916-0.094,1.242-0.279s0.576-0.451,0.754-0.795c0.176-0.344,0.302-0.753,0.377-1.229
  		c0.074-0.475,0.111-0.99,0.111-1.549V15.28h3.516V28.647z"/>
  </g>
</svg>